<svg xmlns="http://www.w3.org/2000/svg" viewBox="0 0 128 128" width="128" height="128">
  <defs>
    <linearGradient id="grad1" x1="0%" y1="0%" x2="100%" y2="100%">
      <stop offset="0%" style="stop-color:#667eea;stop-opacity:1" />
      <stop offset="100%" style="stop-color:#764ba2;stop-opacity:1" />
    </linearGradient>
  </defs>
  
  <!-- Background circle -->
  <circle cx="64" cy="64" r="60" fill="url(#grad1)"/>
  
  <!-- Certificate icon -->
  <rect x="32" y="35" width="64" height="50" rx="3" fill="white" opacity="0.95"/>
  
  <!-- Ribbon -->
  <path d="M 56 85 L 56 110 L 64 105 L 72 110 L 72 85 Z" fill="#FFD700"/>
  <path d="M 56 85 L 56 110 L 64 105 L 72 110 L 72 85 Z" fill="none" stroke="#FFA500" stroke-width="1"/>
  
  <!-- Text lines on certificate -->
  <line x1="40" y1="45" x2="88" y2="45" stroke="#667eea" stroke-width="2" stroke-linecap="round"/>
  <line x1="40" y1="55" x2="80" y2="55" stroke="#764ba2" stroke-width="2" stroke-linecap="round"/>
  <line x1="40" y1="65" x2="88" y2="65" stroke="#667eea" stroke-width="2" stroke-linecap="round"/>
  <line x1="40" y1="75" x2="75" y2="75" stroke="#764ba2" stroke-width="2" stroke-linecap="round"/>
  
  <!-- Star decoration -->
  <circle cx="64" cy="55" r="8" fill="#FFD700" opacity="0.8"/>
  <path d="M 64 49 L 65.5 53.5 L 70 53.5 L 66.5 56.5 L 68 61 L 64 58 L 60 61 L 61.5 56.5 L 58 53.5 L 62.5 53.5 Z" fill="white"/>
</svg>
